ply
format ascii 1.0
element vertex 180
property float x
property float y
property float z
property uchar diffuse_red
property uchar diffuse_green
property uchar diffuse_blue
end_header
-5.01323 0.196569 7.59373 255 0 255
-4.90286 0.243342 8.48583 0 255 0
-4.67062 0.249745 7.7189 0 255 0
-5.20898 0.0752781 8.36203 0 255 0
-6.41122 -0.171223 -4.16851 255 0 255
-5.44435 -0.0320976 11.8956 0 255 0
-5.87732 -0.0248161 -0.618435 0 255 0
-13.7101 -0.0779808 -31.3885 0 255 0
-5.72994 5.44214e-05 0.423053 0 255 0
-5.92248 0.0215175 -0.460076 0 255 0
-6.26133 0.111476 -2.33858 0 255 0
-5.5683 -0.181372 0.485128 255 0 255
-5.29084 0.111584 1.27296 0 255 0
-4.65216 -0.00529242 4.63167 0 255 0
-6.73655 -0.0161152 -4.44909 0 255 0
-4.5901 0.125872 8.05761 255 0 255
-4.72018 0.264951 7.53648 255 0 255
-5.45848 0.0925854 3.30045 0 255 0
-4.09097 -0.101159 7.84965 0 255 0
-4.64637 -0.330239 8.96999 0 255 0
-4.30096 -0.300667 7.67136 0 255 0
-3.93069 -0.236879 7.19709 0 255 0
-4.66827 -0.800409 7.99898 0 255 0
-4.56904 -0.486016 9.04609 0 255 0
-4.16102 -0.427176 7.81367 0 255 0
-4.11847 -0.611585 7.27076 0 255 0
-4.36574 -0.535754 7.41864 0 255 0
-4.12719 0.0522922 7.66202 0 255 0
-4.29578 -1.14699 6.63247 0 255 0
-4.64614 -0.263681 9.03228 0 255 0
-4.68334 -0.842472 8.05973 0 255 0
-4.73717 -0.444273 7.92281 0 255 0
-5.6315 0.625412 7.76778 0 255 0
-5.26744 0.0342244 8.32011 0 255 0
-5.36576 0.286775 9.54139 0 255 0
-5.19884 0.0326251 9.31054 255 0 255
-5.74131 -0.140176 7.55052 0 255 0
-4.35938 0.251205 7.72346 255 0 255
-3.85466 0.299153 8.49093 255 0 255
-6.13795 -0.017261 8.6234 0 255 0
-4.38716 0.290693 7.88767 255 0 255
-4.42596 -0.532315 7.60383 0 255 0
-3.53045 0.366612 8.88402 0 255 0
-6.95216 -0.41381 7.79329 0 255 0
-6.98122 -0.230755 7.86599 0 255 0
-6.9819 -0.550357 7.79823 0 255 0
-7.00645 -0.682199 7.84907 255 0 255
-7.04006 -0.854755 7.91099 255 0 255
-7.07426 -0.230797 7.8896 255 0 255
-7.21087 -0.233338 7.97672 0 255 0
-7.2411 -0.24426 7.93149 255 0 255
-7.19096 -0.255881 7.88414 255 0 255
-7.23996 -0.239248 8.05592 255 0 255
-7.20568 -0.372374 8.19773 255 0 255
-6.90738 -0.24638 7.84721 255 0 255
-7.13396 -1.00734 8.096 255 0 255
-2.98067 0.0148659 8.4993 0 255 0
-2.86924 -0.080269 8.77161 255 0 255
-3.17239 0.372278 9.07114 0 255 0
-2.85646 0.382833 8.97476 255 0 255
-4.92851 -0.0877768 0.421248 255 0 255
-5.39184 -0.0581105 8.00115 0 255 0
-5.20885 0.0746018 8.36171 0 255 0
-5.2094 0.0742648 8.36039 255 0 255
-6.95751 -0.452451 8.18992 255 0 255
-5.17383 0.014855 8.03963 255 0 255
-5.14673 -0.0848815 7.78155 255 0 255
-5.42215 0.0256207 1.51618 255 0 255
-5.20878 0.074483 8.36178 0 255 0
-5.37992 -0.109765 3.90868 0 255 0
-5.31594 -0.0927726 8.33934 0 255 0
-4.57701 0.114627 -15.5585 0 255 0
-3.79454 0.261623 -12.3614 255 0 255
-1.843 -9.10735e-09 -16.1088 0 255 0
-3.08189 0.279397 -12.4601 0 255 0
-4.44953 0.057133 -15.8275 255 0 255
-1.39679 0.0604561 -15.2569 0 255 0
-0.994031 0.0777803 -15.7699 0 255 0
-0.854154 0.0250929 -14.7139 255 0 255
-2.31497 -0.100015 -16.9952 0 255 0
-4.02653 0.192092 -10.7472 255 0 255
-0.677161 0.055659 -12.3786 255 0 255
-0.178294 0.0366724 -10.7434 255 0 255
-0.919966 0.0116021 -11.8301 0 255 0
-2.51501 0.180562 -15.5438 255 0 255
0.324039 0.0696468 -9.2111 255 0 255
0.730703 0.10048 -9.66845 255 0 255
-4.55868 0.124924 -19.9677 255 0 255
1.01313 0.188004 -8.14166 0 255 0
-5.82766 0.295224 -14.1871 255 0 255
-5.14656 0.035646 -7.32061 0 255 0
-4.32659 0.170691 -2.0202 255 0 255
-4.06735 0.212145 -3.74273 0 255 0
-2.65997 -0.166271 -17.5643 0 255 0
-2.64755 -0.265642 -15.6926 0 255 0
-4.80434 -0.513545 5.53991 255 0 255
-4.78435 0.00899733 3.82761 255 0 255
-5.06144 -0.0322679 2.93244 255 0 255
-4.21196 0.286248 8.25318 0 255 0
-1.52177 -0.0882845 -6.64555 255 0 255
1.14575 0.0280909 -9.56077 0 255 0
1.45159 -0.0161009 -10.1925 0 255 0
1.01612 0.0816915 -8.26961 255 0 255
1.62125 0.0288774 -10.2089 255 0 255
1.93849 0.0334692 -11.1428 255 0 255
1.79797 0.0149292 -9.7959 255 0 255
-3.00936 -0.0832041 8.66822 255 0 255
2.9265 0.0602462 -19.9978 0 255 0
-6.56394 -0.385953 8.26986 255 0 255
-6.48131 -0.146944 8.20249 255 0 255
-2.60325 0.39399 8.5823 255 0 255
-2.77101 0.202795 8.57079 255 0 255
-5.14108 0.259804 5.67102 0 255 0
-2.78274 0.246346 9.05694 0 255 0
-5.46722 0.684624 6.98918 0 255 0
-5.40905 0.676587 7.79289 0 255 0
-1.98765 0.286566 9.12143 255 0 255
-5.38099 -0.187913 6.80166 255 0 255
-5.49659 -0.0139134 7.55202 0 255 0
-5.54748 -1.62681e-08 7.1569 0 255 0
-5.56018 0.204437 7.56671 255 0 255
-5.52928 0.322383 7.78494 0 255 0
-5.54297 0.522744 7.92197 0 255 0
-4.38529 3.35695 -3.98689 0 255 0
-6.04666 -0.155565 8.40741 255 0 255
-6.20229 -0.252653 8.5197 0 255 0
-5.55767 0.523207 7.81485 0 255 0
-6.34518 -0.137269 8.51855 255 0 255
-5.44004 -0.0545455 8.17063 255 0 255
-5.00152 -0.120011 2.1369 255 0 255
-5.22523 1.19147 6.05066 255 0 255
-6.55474 -0.185107 8.51408 0 255 0
-5.70933 0.363581 -1.94655 255 0 255
-6.89903 0.0776777 -12.6342 255 0 255
-4.07819 -0.111437 6.31732 255 0 255
-4.33848 -0.102913 11.859 0 255 0
-2.99444 -0.782462 0.733744 255 0 255
-4.29404 0.0398941 8.24575 255 0 255
-6.29456 -0.390392 6.84935 255 0 255
-1.86886 0.17899 18.8687 255 0 255
-2.58305 -0.397267 7.56573 0 255 0
-2.9221 -0.449883 7.39796 255 0 255
-2.09949 -0.376474 7.59571 255 0 255
-3.19541 -0.440799 7.1665 255 0 255
-3.45195 -0.414095 6.93762 255 0 255
-3.58095 -0.440396 6.91768 0 255 0
-3.73661 -0.409101 7.61223 0 255 0
-4.42181 -0.431855 7.65893 255 0 255
-4.43081 -0.423872 7.66747 255 0 255
-4.44039 -0.429486 7.62247 0 255 0
-4.20196 -0.154895 8.89843 255 0 255
-4.94552 -0.427652 7.8437 0 255 0
10.2858 -0.15852 -77.3848 255 0 255
-2.47041 0.362134 11.2633 255 0 255
-5.15064 -0.440073 7.70881 255 0 255
-5.72827 -0.433456 8.01961 0 255 0
-5.76315 -0.437852 7.94453 255 0 255
-5.7189 -0.428532 8.03653 255 0 255
-5.97565 -0.445908 7.97832 255 0 255
-5.67309 -0.415823 8.12225 255 0 255
-5.57352 -0.35262 9.35975 255 0 255
-6.72514 -0.451939 9.89484 255 0 255
5.25231 -2.09431 -41.8964 255 0 255
-2.24874 -4.7122 -3.09522 255 0 255
-5.6484 -0.459983 7.63037 255 0 255
-3.70221 -0.217135 1.61442 255 0 255
-3.68461 -1.30646 4.61864 255 0 255
-2.32158 0.0906118 9.56267 255 0 255
-2.22236 0.0589561 9.69694 0 255 0
-2.00052 0.0375306 9.87535 0 255 0
-1.68604 0.0300164 9.9014 255 0 255
-2.33575 0.0820158 10.0812 255 0 255
-1.48151 0.0437579 10.0429 255 0 255
-7.68341 0.0153424 -4.92224 255 0 255
-1.1471 -0.941689 0.973693 255 0 255
-3.77108 -0.246419 1.17816 255 0 255
-3.401 -7.56634e-09 8.74343 255 0 255
-219.53 -0.762488 -1096.14 255 0 255
-13.1124 -0.172836 -46.7282 255 0 255
-6.2031 0.12044 4.43864 255 0 255
