ply
format ascii 1.0
element vertex 133
property float x
property float y
property float z
property uchar diffuse_red
property uchar diffuse_green
property uchar diffuse_blue
end_header
2.78084 0.991105 2.59346 0 255 0
2.91475 0.900794 1.5984 255 0 255
2.54835 0.944872 2.32049 255 0 255
3.18013 0.55963 0.73165 0 255 0
2.73662 -0.705889 1.07504 0 255 0
3.94048 -0.275366 2.10962 0 255 0
2.92617 -2.0011 1.96675 255 0 255
5.70028 0.847114 0.16075 255 0 255
7.13617 -8.09838e-08 -0.24433 255 0 255
6.79745 0.798467 -1.04472 255 0 255
5.60549 0.863009 -1.89969 255 0 255
7.80341 0.416836 -5.14018 255 0 255
1.72516 1.11572 -10.1339 0 255 0
1.98034 0.360865 -11.0848 0 255 0
8.5231 0.829487 -5.54039 255 0 255
8.43547 -0.0334727 -8.17125 0 255 0
1.93142 2.41978 -10.5837 0 255 0
8.09298 1.38439 -6.63409 255 0 255
9.5149 1.26539 -11.8915 0 255 0
12.2504 1.3431 -11.3387 0 255 0
11.2584 -0.993518 -11.4299 0 255 0
11.1493 -1.96027 -9.67175 0 255 0
9.20161 -2.88134 -12.0674 0 255 0
12.3228 -1.29115 -6.9364 0 255 0
5.85342 -0.453278 -12.4295 255 0 255
5.45979 -1.14136e-08 -12.11 255 0 255
10.8081 -3.64028 -7.27464 255 0 255
10.9053 -4.71023 -10.1261 0 255 0
8.09238 -4.43997 -9.80538 0 255 0
10.3933 -6.50039 -9.54782 255 0 255
10.3083 -6.55647 -8.591 255 0 255
0.364562 -3.66279 1.46695 0 255 0
0.53408 -3.7174 1.70015 0 255 0
5.7575 -4.02327 3.80949 0 255 0
10.8698 -6.74255 -6.50064 255 0 255
11.7237 -6.31346 -8.17264 0 255 0
13.1553 -6.6189 -10.1599 0 255 0
3.42745 -3.07428 -3.12543 255 0 255
16.7652 -1.25554 -15.1705 255 0 255
16.8514 0.974657 -11.5806 255 0 255
-0.251437 0.856214 -2.23796 255 0 255
0.643223 -4.19101 0.87528 255 0 255
3.59365 -3.83458 0.0941194 255 0 255
13.0037 -7.15689 -10.7028 0 255 0
18.1682 0.541103 -17.1611 255 0 255
18.18 -1.84887 -14.5708 255 0 255
3.43877 -3.2776 4.00189 255 0 255
4.82377 -5.8393 -18.7448 0 255 0
0.735677 3.82089 -2.51396 255 0 255
3.60604 4.5196 -9.9375 0 255 0
3.49993 4.76146 -10.2607 0 255 0
2.29572 4.04737 -10.8629 0 255 0
2.27912 4.27152 -10.5521 255 0 255
3.10613 -4.34111 4.21202 255 0 255
19.6295 -0.525215 -12.942 0 255 0
19.727 -1.09056 -13.3762 0 255 0
21.3602 -0.125887 -16.1823 255 0 255
18.6387 0.545716 -16.078 0 255 0
19.7796 0.632937 -13.2109 255 0 255
0.42873 5.18635 -3.50732 255 0 255
6.4742 -0.459924 -14.494 255 0 255
10.9203 -1.56701 -13.6879 0 255 0
6.9541 -4.25043 -0.211942 255 0 255
16.2337 -6.81072 -13.1333 0 255 0
0.562817 2.84671 -0.516555 255 0 255
22.2321 -7.05096 -15.494 0 255 0
23.3475 -6.8273 -17.4105 255 0 255
25.4593 -7.22402 -15.7691 255 0 255
33.2026 -8.31229 -17.7236 0 255 0
29.3064 -6.69075 -16.411 255 0 255
38.0253 -8.28407 -17.6695 0 255 0
37.7875 -7.63748 -17.9706 0 255 0
30.7318 -6.41538 -17.5433 255 0 255
38.8551 -8.14412 -15.048 0 255 0
40.6241 -7.33226 -12.6189 255 0 255
41.7981 -7.49186 -11.5249 255 0 255
42.8125 -7.45692 -7.68745 255 0 255
43.9846 -7.253 -7.46402 255 0 255
47.3009 -7.58497 -7.14432 255 0 255
47.9304 -8.05012 -7.95419 255 0 255
48.2496 -8.3129 -8.9107 255 0 255
48.1757 -7.62091 -7.95798 0 255 0
50.4593 -8.71156 -8.1105 255 0 255
50.173 -7.56699 -5.51073 255 0 255
51.6344 -8.52104 -4.00349 255 0 255
51.7198 -8.61856 -3.80834 255 0 255
52.3204 -8.83735 -6.68074 255 0 255
52.3862 -8.75856 -4.53245 0 255 0
51.3617 -7.67266 -2.37902 0 255 0
51.2823 -7.73826 3.35311 255 0 255
50.3722 -7.18744 0.0671945 255 0 255
50.7865 -7.81807 3.15043 0 255 0
50.8496 -6.61545 -0.870546 255 0 255
48.9327 -6.21741 -6.93741 255 0 255
51.7039 -6.08773 3.33399 0 255 0
51.8506 -5.7846 5.02571 255 0 255
51.7611 -5.29679 4.22371 255 0 255
52.1439 -5.66075 5.53925 255 0 255
51.9279 -5.07847 5.8037 255 0 255
52.078 -3.47254 5.17066 0 255 0
51.8765 -2.96032 5.23928 255 0 255
53.2096 -0.921889 5.03541 255 0 255
52.4745 -0.44923 5.8696 0 255 0
51.3633 -0.0988294 4.68146 0 255 0
51.5607 0.26854 4.88744 0 255 0
51.4431 0.396962 4.8349 255 0 255
52.9285 -0.0132456 4.94465 255 0 255
51.5687 1.69842e-07 5.76429 255 0 255
49.6722 1.10792 4.66783 255 0 255
52.5341 0.31449 6.47637 255 0 255
50.0853 0.744261 2.02276 255 0 255
0.506873 5.15757 -3.42347 255 0 255
50.1363 -0.529436 -26.9195 0 255 0
47.365 -0.262501 -27.8312 0 255 0
45.8557 0.18515 -29.2643 255 0 255
44.148 -3.24981 -50.1175 0 255 0
40.3148 -0.322435 -28.7516 255 0 255
35.2784 -1.29464 -33.3883 255 0 255
49.5673 -0.757516 -14.8151 255 0 255
40.3829 1.27048 -7.97748 255 0 255
51.944 -0.960094 -12.8256 0 255 0
50.8018 -0.905382 -8.40753 255 0 255
28.9498 -1.75776 -20.8393 0 255 0
27.5402 0.689666 -13.0859 255 0 255
29.7414 -1.86493 -21.0004 255 0 255
27.3221 -1.68518 -19.7128 255 0 255
18.476 -1.41876 -27.0762 0 255 0
18.9377 -2.31446 -21.8717 255 0 255
20.3665 -1.00926 -26.3883 0 255 0
18.7282 -1.42706 -26.4805 255 0 255
14.2282 -1.57066 -25.935 255 0 255
8.58968 -0.886709 -25.1464 255 0 255
17.339 -1.81137 -24.3935 0 255 0
