ply
format ascii 1.0
element vertex 186
property float x
property float y
property float z
property uchar diffuse_red
property uchar diffuse_green
property uchar diffuse_blue
end_header
2.00504 -0.108865 7.94442 0 255 0
1.81062 0.0611702 8.42043 0 255 0
1.56651 -7.73033e-09 8.6468 0 255 0
1.30859 -0.0206512 8.77445 0 255 0
2.08846 0.00213699 8.10382 255 0 255
1.17814 -0.0161696 8.86713 0 255 0
1.24852 0.0711851 8.91596 0 255 0
1.22173 0.157476 8.78007 255 0 255
1.11243 0.242367 8.21293 0 255 0
1.17104 0.178439 8.5063 255 0 255
1.10728 0.300658 8.01206 255 0 255
1.97094 -0.165009 7.73005 255 0 255
2.6385 -0.0803347 7.62507 0 255 0
3.26581 -0.0307976 7.1349 255 0 255
4.3189 0.0302982 6.60913 0 255 0
5.65492 0.0907867 6.29984 0 255 0
7.0223 0.0784267 6.24667 255 0 255
5.5705 0.117436 5.97365 0 255 0
5.90421 0.0242439 6.30863 0 255 0
5.25161 0.0124686 6.37382 0 255 0
6.38275 -3.29153e-08 6.39658 255 0 255
7.65317 0.252181 6.29512 255 0 255
7.94305 -0.0605092 5.88456 255 0 255
8.94765 -0.229408 5.52532 0 255 0
9.97312 -0.228899 5.75247 0 255 0
10.6307 -0.134623 5.45293 0 255 0
10.7 0.0374311 5.63271 255 0 255
10.4587 0.105285 5.8764 255 0 255
10.8475 -0.230496 5.18895 0 255 0
8.0841 0.379195 6.08755 0 255 0
8.16199 0.472444 5.96888 0 255 0
11.3086 -0.231836 5.62879 255 0 255
12.2525 -0.156994 5.96506 0 255 0
12.3586 0.177243 6.699 255 0 255
12.6635 0.165192 7.23598 0 255 0
12.3107 0.040215 6.47714 255 0 255
12.9779 0.0784022 7.97327 255 0 255
12.7846 0.0191584 8.64104 0 255 0
12.8382 0.190324 8.66218 255 0 255
12.9956 0.164469 8.9693 0 255 0
13.5719 0.131269 8.95841 255 0 255
14.146 0.0891589 8.92286 255 0 255
14.3509 0.00397304 8.96275 255 0 255
14.3291 0.00371505 8.59438 0 255 0
14.249 -0.0499361 8.68812 255 0 255
14.1493 -0.0216494 8.66601 0 255 0
14.696 -0.169547 8.94434 0 255 0
14.5879 0.182241 8.71014 0 255 0
15.1598 -0.188129 9.9043 0 255 0
15.0625 -0.136536 10.1651 0 255 0
14.935 -0.0988367 10.3389 0 255 0
14.9422 -0.104801 10.3597 0 255 0
14.6465 -0.0309755 10.1126 255 0 255
15.1256 -0.127893 9.46946 255 0 255
14.5623 0.0499557 10.6915 0 255 0
14.9157 -0.0624691 10.3578 0 255 0
14.8104 -0.144462 9.82311 0 255 0
14.5098 0.222714 9.84793 0 255 0
14.7469 0.169475 10.886 255 0 255
14.1217 0.204568 8.95624 255 0 255
14.1547 0.0474041 8.707 255 0 255
14.2809 0.419033 9.45185 255 0 255
13.8794 0.417963 9.41953 0 255 0
14.7862 0.32313 11.2452 255 0 255
14.6299 0.450314 11.3295 0 255 0
14.7493 0.465601 11.3028 0 255 0
14.8477 0.0355238 12.5009 0 255 0
14.9862 0.048766 12.5666 0 255 0
14.9689 -6.32928e-08 12.6204 0 255 0
14.6759 0.256888 11.5773 0 255 0
14.7821 0.112752 12.1892 255 0 255
15.0456 0.323316 12.5028 255 0 255
15.1033 0.558248 12.5885 255 0 255
15.1523 0.706996 12.9937 255 0 255
15.135 0.782643 12.8637 0 255 0
15.1352 0.748785 12.7233 0 255 0
15.1688 0.635462 13.0924 0 255 0
14.2794 0.643522 9.31719 255 0 255
15.2149 0.585043 13.1804 255 0 255
3.49706 2.49708 5.6312 0 255 0
3.80582 2.44379 5.74236 0 255 0
4.59767 2.34073 5.83384 255 0 255
15.2822 0.662547 13.2238 255 0 255
15.2389 0.647011 13.3583 0 255 0
1.14347 0.556524 7.95116 0 255 0
1.62852 2.5487 7.77716 0 255 0
0.484024 0.682907 8.51474 255 0 255
4.03949 2.12505 6.88926 0 255 0
9.274 -0.208156 8.91642 255 0 255
0.894532 2.12455 7.31223 255 0 255
0.946293 2.575 7.79617 255 0 255
0.749963 2.48363 7.63186 255 0 255
15.2313 1.03833 13.2215 0 255 0
15.266 1.29084 13.1714 0 255 0
15.3624 1.45374 13.1993 255 0 255
15.3539 1.51902 13.2027 255 0 255
15.3243 0.815636 13.2502 255 0 255
1.92266 1.60048 9.4299 0 255 0
1.20598 0.777171 9.01612 0 255 0
1.10467 1.83635 7.47529 0 255 0
1.24542 1.55375 8.31513 0 255 0
0.913036 1.23896 7.6447 0 255 0
0.680205 1.56835 7.01911 255 0 255
0.0534281 0.79877 6.89297 0 255 0
-0.0456011 0.994648 7.31869 0 255 0
1.3826 1.6574 8.99941 0 255 0
-1.43863 1.96927 8.43367 0 255 0
-2.61056 1.15324 6.19287 0 255 0
-0.621385 2.28782 9.29002 0 255 0
-1.05019 2.31357 9.0678 0 255 0
-0.724326 2.65115 9.32344 0 255 0
0.765785 2.16853 9.95819 0 255 0
0.271896 2.25908 9.69142 0 255 0
0.625716 2.3665 9.75427 0 255 0
-0.908381 2.15376 9.65935 0 255 0
0.725288 2.42914 9.75331 255 0 255
2.33566 2.5225 7.82609 255 0 255
-0.353904 3.20166 9.51189 255 0 255
-0.868904 3.26515 9.21426 0 255 0
-5.42776 3.55929 4.01297 0 255 0
-0.109505 2.4105 11.1676 255 0 255
-4.24042 2.39596 5.12405 255 0 255
3.20745 2.62641 7.73037 255 0 255
-17.6498 7.0244 -8.34462 0 255 0
-0.50466 1.89779 7.6238 255 0 255
-0.498611 1.89513 7.64389 0 255 0
-3.11228 1.62175 9.33496 0 255 0
-0.445048 2.15033 10.7609 255 0 255
-1.10729 2.11917 11.0509 0 255 0
-0.652223 1.9784 11.0366 255 0 255
-0.3129 2.24374 11.9515 255 0 255
-1.52154 2.23405 11.0385 255 0 255
-3.87883 4.50124 4.73946 255 0 255
0.308371 1.14161 7.60032 255 0 255
-0.497783 1.90264 7.65047 255 0 255
-0.693136 0.0531409 6.84238 255 0 255
-1.90225 1.7132 10.9221 0 255 0
3.15768 1.87169 6.47379 255 0 255
3.2863 1.71213 6.5753 255 0 255
3.58 2.18812 6.39047 0 255 0
2.38592 1.30258 9.63701 255 0 255
-0.834594 0.140498 5.9367 0 255 0
3.76789 2.50195 6.09517 255 0 255
3.93142 2.61359 7.59289 255 0 255
3.62378 1.6724 6.50045 0 255 0
0.673653 1.3684 8.85415 0 255 0
-0.507287 1.90316 7.66377 255 0 255
3.91763 2.51704 6.69621 0 255 0
4.1915 2.26715 6.8345 255 0 255
-2.06667 1.72285 11.9957 0 255 0
4.06533 2.15027 7.03254 255 0 255
-2.61243 2.14641 11.5888 0 255 0
-2.26868 1.93791 12.4378 255 0 255
4.10905 1.9526 6.79956 255 0 255
-2.66194 2.16576 11.7914 255 0 255
-2.58629 2.09998 11.4189 0 255 0
0.483072 1.10506 6.11905 0 255 0
-2.63678 2.19527 12.1419 255 0 255
-2.76514 2.18025 12.1276 0 255 0
-2.79582 2.1383 11.989 0 255 0
-2.54047 2.19561 12.2852 255 0 255
-2.68986 1.7671 11.5111 255 0 255
-2.72105 1.48888 11.6103 255 0 255
-2.69479 1.23912 11.7368 255 0 255
-2.60011 0.905122 11.9336 255 0 255
-2.43197 0.648088 12.3091 255 0 255
15.5619 1.6794 13.1596 255 0 255
15.5285 5.40239 14.4198 255 0 255
4.851 1.89109 8.40068 0 255 0
32.6546 18.1512 -21.3854 0 255 0
29.1719 15.0625 -11.7622 255 0 255
22.7221 2.61194 6.50971 255 0 255
22.1868 2.67457 5.29827 0 255 0
21.7871 2.66734 4.54781 0 255 0
21.4062 2.81997 4.24671 0 255 0
20.9899 2.99872 4.09479 255 0 255
21.5315 3.10899 2.87695 0 255 0
19.3431 3.06821 4.36511 255 0 255
19.1722 2.93592 2.59903 255 0 255
19.5748 2.92864 2.2418 255 0 255
19.0922 2.94226 2.69478 255 0 255
17.008 3.33011 5.06802 255 0 255
18.6273 3.12481 9.25593 0 255 0
37.0917 2.96674 -36.7856 255 0 255
22.2227 2.59602 6.9686 255 0 255
22.2102 2.70296 7.49429 255 0 255
