ply
format ascii 1.0
element vertex 21
property float x
property float y
property float z
property uchar diffuse_red
property uchar diffuse_green
property uchar diffuse_blue
end_header
0.0403104 -5.15508e-09 5.95044 0 255 0
-0.792704 -0.203867 5.87117 255 0 255
-0.569335 -0.191551 6.16641 255 0 255
0.317656 -0.538286 8.03947 255 0 255
-0.703116 -0.27551 7.50567 0 255 0
-2.02342 -0.241916 7.50066 0 255 0
3.47157 1.03262e-07 8.56851 255 0 255
4.08408 0.146009 8.02408 255 0 255
-2.84938 1.12514e-07 9.85302 255 0 255
4.38207 0.00903242 7.11946 0 255 0
6.45174 0.0511097 7.32164 0 255 0
7.10085 -0.027849 6.26456 0 255 0
7.93823 0.00546011 3.70463 0 255 0
7.92808 0.00432749 3.68448 255 0 255
9.21127 0.403152 5.12749 255 0 255
6.77611 -0.655004 2.22243 255 0 255
4.68059 0.812711 10.0709 255 0 255
11.6602 -0.0050394 6.08935 255 0 255
9.7055 0.617826 8.98477 0 255 0
13.0653 -0.112758 6.13996 255 0 255
13.6235 0.00548674 7.65026 255 0 255
