ply
format ascii 1.0
element vertex 22
property float x
property float y
property float z
property uchar diffuse_red
property uchar diffuse_green
property uchar diffuse_blue
end_header
0.657587 -2.48063e-06 9.48151 255 0 255
0.263586 -1.09165 9.31176 255 0 255
0.779059 1.93527 9.63137 255 0 255
0.761238 -0.725633 10.1076 255 0 255
4.83475 3.88903 -1.15275 0 255 0
7.51753 7.22116 -9.21341 0 255 0
5.21839 5.22649 -5.23116 0 255 0
4.66803 4.29006 -1.50657 255 0 255
1.83903 0.0906536 8.02397 255 0 255
-5.19708 3.7431 -1.26972 255 0 255
-2.50823 3.43708 -0.836178 255 0 255
7.50719 -0.0525489 -4.42847 255 0 255
7.92669 1.09154e-09 -4.86245 0 255 0
8.07572 0.0274353 -5.02372 0 255 0
7.9073 0.0406683 -4.36664 0 255 0
8.3167 -5.96278e-08 -4.26307 0 255 0
8.17201 -0.17821 -5.04885 255 0 255
8.40252 0.0710148 -4.46623 255 0 255
-6.33892 3.77208 -0.117147 255 0 255
0.116516 -0.57794 9.56595 255 0 255
8.46325 -0.0655867 -5.52504 255 0 255
-0.0593913 0.633615 10.044 255 0 255
