ply
format ascii 1.0
element vertex 15
property float x
property float y
property float z
end_header
0.657587 -2.48063e-06 9.48151
0.263586 -1.09165 9.31176
0.779059 1.93527 9.63137
0.761238 -0.725633 10.1076
4.66803 4.29006 -1.50657
1.83903 0.0906536 8.02397
-5.19708 3.7431 -1.26972
-2.50823 3.43708 -0.836178
7.50719 -0.0525489 -4.42847
8.17201 -0.17821 -5.04885
8.40252 0.0710148 -4.46623
-6.33892 3.77208 -0.117147
0.116516 -0.57794 9.56595
8.46325 -0.0655867 -5.52504
-0.0593913 0.633615 10.044
