ply
format ascii 1.0
element vertex 17
property float x
property float y
property float z
property uchar diffuse_red
property uchar diffuse_green
property uchar diffuse_blue
end_header
-1.41241 0.249814 4.82019 0 255 0
-2.31536 -2.50434e-09 4.61266 255 0 255
-2.07131 -0.000938832 4.88509 255 0 255
-1.25774 -0.312299 7.00822 255 0 255
-2.32068 -0.0752317 6.49772 255 0 255
-3.86486 0.00136897 6.38829 255 0 255
2.59883 3.39639e-08 6.0667 255 0 255
3.33459 0.137973 5.77342 0 255 0
-6.17751 0.197241 7.356 255 0 255
4.20061 0.28533 6.36171 0 255 0
6.60493 0.28289 5.81917 255 0 255
8.46283 -0.00256664 2.18905 0 255 0
5.89248 -0.167432 3.77862 0 255 0
8.3654 0.000344631 2.21656 0 255 0
8.36852 -3.11631e-05 2.21699 255 0 255
8.36677 5.82492e-08 2.21742 255 0 255
16.7883 -6.30455 -28.5255 255 0 255
